#!OML:ASF F:\VICON\USERDATA\INSTALL\rory3\rory3.ASF
:FULLY-SPECIFIED
:DEGREES
238
root 7.50758 17.2364 24.9738 157.542 -105.586 -156.683
lowerback 38.019 2.04568 5.15247
upperback 7.02847 4.67963 7.27273
thorax -11.1446 1.62244 3.26554
lowerneck -12.8272 -2.44514 -4.27253
upperneck 4.30463 -2.01183 -10.9511
head 3.32602 -1.72588 -2.80645
rclavicle 1.74931e-014 0
rhumerus -7.5463 -41.3987 -63.1338
rradius 24.8721
rwrist -5.3035
rhand -11.4803 1.24111
rfingers 7.12502
rthumb 14.5578 -28.2281
lclavicle 1.74931e-014 0
lhumerus -43.9998 2.79971 90.7813
lradius 52.366
lwrist -6.67191
lhand -13.5853 44.2496
lfingers 7.12502
lthumb 12.529 73.854
rfemur -21.4231 7.24077 2.62506
rtibia 51.1468
rfoot -22.1519 -13.5614
rtoes -15.8708
lfemur -24.2076 -9.72222 1.06781
ltibia 33.6848
lfoot 11.2398 -0.433944
ltoes -33.834
239
root 7.52744 17.2379 25.2706 155.774 -105.292 -154.537
lowerback 37.7894 2.2002 4.86917
upperback 7.04387 4.74226 7.2182
thorax -11.0696 1.66521 3.32928
lowerneck -12.7275 -2.34559 -4.14184
upperneck 4.08171 -1.91822 -11.2575
head 3.24325 -1.68121 -2.91022
rclavicle -4.13472e-014 0
rhumerus -7.39185 -46.5832 -62.4743
rradius 23.6023
rwrist -6.43754
rhand -14.3825 0.822818
rfingers 7.12502
rthumb 11.7603 -28.827
lclavicle -4.13472e-014 0
lhumerus -44.3024 2.70554 91.1957
lradius 52.2793
lwrist -6.21798
lhand -13.1916 44.2759
lfingers 7.12502
lthumb 12.9085 73.8567
rfemur -21.2438 7.96611 1.12495
rtibia 50.2419
rfoot -21.2786 -14.4127
rtoes -18.976
lfemur -24.1898 -9.36195 -0.0154145
ltibia 34.3102
lfoot 9.43319 -0.631315
ltoes -40.5871
240
root 7.54747 17.2307 25.5674 154.48 -104.904 -152.853
lowerback 37.4729 2.30103 4.80965
upperback 7.08442 4.80101 7.06397
thorax -10.9002 1.70219 3.17324
lowerneck -12.7411 -2.32571 -3.72993
upperneck 3.90238 -1.96307 -11.508
head 3.18363 -1.70048 -3.0532
rclavicle -2.22639e-014 -2.54444e-014
rhumerus -7.64515 -51.2446 -61.8831
rradius 23.1604
rwrist -6.15212
rhand -17.7691 0.555173
rfingers 7.12502
rthumb 8.49321 -29.254
lclavicle -2.22639e-014 -2.54444e-014
lhumerus -44.5516 2.31713 91.514
lradius 52.229
lwrist -4.96146
lhand -13.7051 44.6783
lfingers 7.12502
lthumb 12.4135 74.2897
rfemur -21.0659 9.23544 -0.314465
rtibia 49.3283
rfoot -21.5645 -14.0207
rtoes -14.615
lfemur -24.1304 -8.66858 -1.03457
ltibia 34.9958
lfoot 7.04284 -0.402066
ltoes -44.1077
241
root 7.56496 17.2302 25.871 152.407 -104.674 -150.357
lowerback 37.0568 2.4555 4.58801
upperback 7.17492 4.85676 6.91716
thorax -10.6543 1.74542 3.11365
lowerneck -12.8464 -2.33178 -3.67221
upperneck 3.82317 -1.97962 -11.5825
head 3.17502 -1.7119 -3.08745
rclavicle 3.97569e-014 2.54444e-014
rhumerus -8.37654 -54.0026 -60.7351
rradius 23.3465
rwrist -6.09203
rhand -20.4295 0.179227
rfingers 7.12502
rthumb 5.92513 -29.7179
lclavicle 3.97569e-014 2.54444e-014
lhumerus -44.7005 1.60751 92.0895
lradius 52.0987
lwrist -3.11189
lhand -14.9032 45.4489
lfingers 7.12502
lthumb 11.2581 75.1268
rfemur -20.8084 10.6003 -2.09821
rtibia 48.3952
rfoot -22.3632 -12.9354
rtoes -5.57974
lfemur -24.1423 -7.90508 -2.4669
ltibia 35.7088
lfoot 4.68106 -0.17296
ltoes -43.1775
242
root 7.58133 17.2384 26.1851 150.29 -104.316 -148.061
lowerback 36.8724 2.52393 4.56089
upperback 7.26992 4.88865 6.80417
thorax -10.4702 1.76437 2.99763
lowerneck -12.8687 -2.28204 -3.89326
upperneck 3.87778 -1.87318 -11.5492
head 3.20253 -1.6662 -3.03679
rclavicle 6.36111e-015 -2.54444e-014
rhumerus -9.24638 -55.2747 -59.3094
rradius 23.5664
rwrist -6.45521
rhand -21.6528 0.052072
rfingers 7.12502
rthumb 4.74399 -29.8748
lclavicle 6.36111e-015 -2.54444e-014
lhumerus -45.0179 1.17349 92.5737
lradius 51.9907
lwrist -1.62236
lhand -15.1485 46.3405
lfingers 7.12502
lthumb 11.0215 76.0311
rfemur -20.4245 11.7665 -3.50105
rtibia 47.4516
rfoot -21.859 -13.5872
rtoes -4.77027
lfemur -24.0316 -6.72829 -3.98065
ltibia 36.4839
lfoot 2.29855 -0.780148
ltoes -43.2857
243
root 7.60155 17.2437 26.5001 148.228 -104.011 -145.77
lowerback 36.6988 2.58535 4.45983
upperback 7.31415 4.89789 6.7089
thorax -10.3562 1.775 2.94764
lowerneck -12.7014 -2.23381 -3.95475
upperneck 3.76684 -1.8233 -11.6261
head 3.14433 -1.63699 -3.04252
rclavicle 1.59028e-015 3.18055e-015
rhumerus -10.051 -56.2972 -57.9845
rradius 23.8612
rwrist -6.24644
rhand -22.6873 0.0243825
rfingers 7.12502
rthumb 3.74509 -29.9225
lclavicle 1.59028e-015 3.18055e-015
lhumerus -45.3408 1.23351 92.7754
lradius 51.8642
lwrist -0.669295
lhand -14.492 46.7135
lfingers 7.12502
lthumb 11.6547 76.3693
rfemur -20.163 12.7554 -4.83654
rtibia 46.5499
rfoot -20.5952 -14.9727
rtoes -7.58633
lfemur -24.1225 -5.27417 -5.5734
ltibia 37.2786
lfoot 0.0886667 -1.45881
ltoes -44.2472
244
root 7.63145 17.2484 26.8183 148.059 -103.547 -145.449
lowerback 36.6309 2.48174 4.87663
upperback 7.31722 4.90774 6.71476
thorax -10.2874 1.76787 2.73627
lowerneck -12.7749 -2.20424 -4.08984
upperneck 3.85317 -1.74988 -11.5899
head 3.1872 -1.609 -3.00823
rclavicle 1.59028e-014 1.90833e-014
rhumerus -10.8374 -57.5301 -56.7015
rradius 24.3725
rwrist -5.33548
rhand -23.43 0.506548
rfingers 7.12502
rthumb 3.02785 -29.4517
lclavicle 1.59028e-014 1.90833e-014
lhumerus -45.6396 1.50944 92.7863
lradius 51.6825
lwrist -0.188923
lhand -13.3393 46.7696
lfingers 7.12502
lthumb 12.7661 76.3593
rfemur -19.9361 13.8122 -5.59036
rtibia 45.7609
rfoot -19.6383 -16.0694
rtoes -6.99607
lfemur -24.3483 -3.6232 -6.69471
ltibia 38.1779
lfoot -1.91089 -1.8529
ltoes -44.3891
245
root 7.66469 17.257 27.1561 145.6 -103.39 -142.643
lowerback 36.398 2.41263 4.72673
upperback 7.32894 4.73547 6.5973
thorax -10.1853 1.69878 2.7612
lowerneck -12.9974 -2.07225 -4.07961
upperneck 3.98038 -1.53358 -11.7809
head 3.27139 -1.52783 -3.06173
rclavicle 9.06458e-014 1.04958e-013
rhumerus -11.3301 -57.8167 -55.5351
rradius 24.8941
rwrist -4.91336
rhand -23.015 1.00112
rfingers 7.12502
rthumb 3.42863 -28.9511
lclavicle 9.06458e-014 1.04958e-013
lhumerus -45.9677 1.89135 92.7893
lradius 51.4767
lwrist -0.0510475
lhand -11.1913 46.5166
lfingers 7.12502
lthumb 14.8362 75.9655
rfemur -20.0408 14.3708 -7.15822
rtibia 45.1764
rfoot -18.5612 -16.8617
rtoes -5.18141
lfemur -24.7151 -2.04235 -8.72539
ltibia 39.1526
lfoot -3.74467 -1.52601
ltoes -44.2586
246
root 7.68764 17.265 27.4794 144.528 -103.142 -141.327
lowerback 36.0371 2.42977 4.73667
upperback 7.44917 4.73132 6.66685
thorax -10.044 1.70276 2.79259
lowerneck -13.0526 -2.02783 -3.90948
upperneck 3.95906 -1.48832 -12.0497
head 3.27456 -1.51922 -3.16993
rclavicle -3.65764e-014 -3.18055e-014
rhumerus -12.0604 -57.4017 -54.1025
rradius 25.5633
rwrist -5.85996
rhand -21.9611 1.40771
rfingers 7.12502
rthumb 4.44633 -28.5256
lclavicle -3.65764e-014 -3.18055e-014
lhumerus -46.281 1.91349 92.9237
lradius 51.2934
lwrist -0.138105
lhand -8.51941 47.2761
lfingers 7.12502
lthumb 17.409 76.5165
rfemur -20.1434 14.7931 -8.13791
rtibia 44.8117
rfoot -17.0507 -18.287
rtoes -4.1723
lfemur -25.1506 -0.361249 -10.3946
ltibia 40.1937
lfoot -5.40773 -1.08351
ltoes -43.8758
247
root 7.71619 17.2719 27.7816 144.737 -102.899 -141.466
lowerback 36.0032 2.30789 5.12954
upperback 7.44848 4.70587 6.61363
thorax -9.9866 1.68211 2.54244
lowerneck -12.7955 -2.03518 -3.7222
upperneck 3.6012 -1.59329 -11.983
head 3.11696 -1.53597 -3.17511
rclavicle 3.18055e-015 1.90833e-014
rhumerus -12.8857 -57.0261 -52.8369
rradius 26.4354
rwrist -7.49137
rhand -20.5936 1.83554
rfingers 7.12502
rthumb 5.76672 -28.066
lclavicle 3.18055e-015 1.90833e-014
lhumerus -46.5781 1.43727 92.9843
lradius 51.1479
lwrist 0.629966
lhand -7.11308 47.9097
lfingers 7.12502
lthumb 18.7621 77.0248
rfemur -20.1367 15.2018 -8.5737
rtibia 44.6088
rfoot -15.4279 -20.2347
rtoes -3.19817
lfemur -25.5724 1.10737 -11.6701
ltibia 41.1988
lfoot -6.90633 -0.762
ltoes -42.5126
248
root 7.74332 17.2814 28.0696 145.806 -102.696 -142.572
lowerback 36.1212 2.08268 5.41627
upperback 7.37206 4.53707 6.67682
thorax -9.97178 1.59161 2.57522
lowerneck -12.5032 -1.97346 -3.61264
upperneck 3.1396 -1.60786 -11.9218
head 2.92737 -1.50488 -3.16205
rclavicle 1.90833e-014 -1.59028e-014
rhumerus -13.1882 -55.9881 -52.0119
rradius 27.2319
rwrist -9.60784
rhand -19.4363 2.21019
rfingers 7.12502
rthumb 6.88401 -27.6579
lclavicle 1.90833e-014 -1.59028e-014
lhumerus -46.9067 1.17311 93.1634
lradius 51.0128
lwrist 2.27772
lhand -7.40263 48.0508
lfingers 7.12502
lthumb 18.4836 77.1926
rfemur -20.0733 15.3904 -8.62202
rtibia 44.4983
rfoot -13.849 -22.4566
rtoes -0.39311
lfemur -25.9598 2.24221 -12.6595
ltibia 42.1023
lfoot -8.06499 -0.696974
ltoes -40.3413
249
root 7.76408 17.3014 28.3476 148.688 -102.263 -145.601
lowerback 36.1654 1.84071 5.91604
upperback 7.38715 4.42749 6.94761
thorax -9.94903 1.51981 2.65218
lowerneck -12.2491 -1.87892 -3.35801
upperneck 2.61536 -1.59289 -11.789
head 2.99431 -1.44101 -3.48371
rclavicle 7.4743e-014 7.63333e-014
rhumerus -13.5274 -54.914 -51.2313
rradius 28.2005
rwrist -11.5874
rhand -18.3661 2.49297
rfingers 7.12502
rthumb 7.91695 -27.3388
lclavicle 7.4743e-014 7.63333e-014
lhumerus -47.2972 0.701524 93.4618
lradius 50.932
lwrist 4.60177
lhand -8.69408 47.8474
lfingers 7.12502
lthumb 17.2409 77.1026
rfemur -19.9601 15.7475 -7.96537
rtibia 44.4048
rfoot -13.2608 -24.8905
rtoes 6.79968
lfemur -26.2054 3.3352 -13.0452
ltibia 42.8236
lfoot -9.0339 -0.853043
ltoes -38.2361
250
root 7.78857 17.3279 28.6262 150.913 -101.953 -147.913
lowerback 36.1996 1.74382 6.09609
upperback 7.41927 4.38996 7.27744
thorax -9.94197 1.48826 2.92994
lowerneck -12.2081 -1.81234 -3.22034
upperneck 2.69967 -1.51488 -12.2101
head 2.74725 -1.43607 -3.29643
rclavicle -1.59028e-014 -6.67916e-014
rhumerus -13.8634 -54.2197 -50.2909
rradius 29.331
rwrist -13.0922
rhand -17.319 2.25912
rfingers 7.12502
rthumb 8.92749 -27.532
lclavicle -1.59028e-014 -6.67916e-014
lhumerus -47.6214 0.31886 93.8314
lradius 50.8377
lwrist 6.17775
lhand -9.27459 47.7896
lfingers 7.12502
lthumb 16.6821 77.0927
rfemur -19.9794 15.9231 -7.49806
rtibia 44.3261
rfoot -13.0247 -27.4153
rtoes 15.4876
lfemur -26.3795 4.29316 -13.6512
ltibia 43.327
lfoot -9.87946 -0.80754
ltoes -37.7831
251
root 7.81652 17.3554 28.9082 151.133 -101.823 -148.107
lowerback 36.0853 1.72469 5.88693
upperback 7.54885 4.27913 7.44442
thorax -9.90844 1.44029 3.21134
lowerneck -12.201 -1.77366 -2.90802
upperneck 2.50441 -1.52733 -12.4116
head 2.68396 -1.43829 -3.40655
rclavicle -6.36111e-015 -2.8625e-014
rhumerus -14.0395 -53.5813 -49.4298
rradius 30.3481
rwrist -14.7793
rhand -16.3896 2.03314
rfingers 7.12502
rthumb 9.82433 -27.7177
lclavicle -6.36111e-015 -2.8625e-014
lhumerus -47.9263 0.0459809 93.9987
lradius 50.7639
lwrist 6.75223
lhand -9.11915 47.9322
lfingers 7.12502
lthumb 16.8317 77.2227
rfemur -20.2392 15.7512 -7.57705
rtibia 44.2786
rfoot -12.4896 -29.9803
rtoes 22.7411
lfemur -26.5022 4.71274 -14.6844
ltibia 43.6716
lfoot -10.6343 -0.714261
ltoes -37.4337
252
root 7.84326 17.3775 29.1792 149.997 -101.718 -147.032
lowerback 36.1612 1.75862 5.51976
upperback 7.60997 4.18173 7.43895
thorax -9.89873 1.40043 3.43534
lowerneck -12.2549 -1.80914 -2.82646
upperneck 2.41218 -1.59867 -12.3566
head 2.66034 -1.46778 -3.40649
rclavicle -5.56597e-014 0
rhumerus -14.3756 -53.0578 -48.4956
rradius 31.4452
rwrist -16.4481
rhand -15.246 1.83168
rfingers 7.12502
rthumb 10.9275 -27.864
lclavicle -5.56597e-014 0
lhumerus -48.2166 -0.211531 94.0392
lradius 50.6483
lwrist 7.019
lhand -8.48802 47.8009
lfingers 7.12502
lthumb 17.4392 77.0386
rfemur -20.5448 15.6332 -7.76975
rtibia 44.3888
rfoot -12.4657 -32.4293
rtoes 29.7236
lfemur -26.3849 4.64486 -15.7639
ltibia 43.8848
lfoot -11.2861 -0.862681
ltoes -35.0003
